<svg class="svg-icon" style="width: 1em;height: 1em;vertical-align: middle;fill: currentColor;overflow: hidden;" viewBox="0 0 1024 1024" version="1.1" xmlns="http://www.w3.org/2000/svg"><path d="M985.742 749.936c0 130.902-106.178 236.964-237.13 236.964H274.336c-130.994 0-237.132-106.062-237.132-236.964V276.018c0-130.864 106.138-236.966 237.132-236.966h474.274c130.954 0 237.13 106.102 237.13 236.966v473.918z" fill="#0074B5" /><path d="M215.052 414.248h138.328v394.928h-138.328zM284.216 355.006c38.172 0 69.164-30.97 69.164-69.116s-30.992-69.114-69.164-69.114c-38.228 0-69.164 30.97-69.164 69.114s30.938 69.116 69.164 69.116zM807.894 592.152c0-106.552-23.002-177.904-147.32-177.904-59.746 0-99.848 22.176-116.252 53.302h-1.696v-53.302h-110.192v394.928h115.168v-195.734c0-51.642 9.768-101.616 73.682-101.616 62.948 0 68.042 59.036 68.042 104.934v192.416h118.568V592.152z" fill="#FFFFFF" /><path d="M215.052 414.248h138.328v394.928h-138.328zM284.216 355.006c38.172 0 69.164-30.97 69.164-69.116s-30.992-69.114-69.164-69.114c-38.228 0-69.164 30.97-69.164 69.114s30.938 69.116 69.164 69.116zM807.894 592.152c0-106.552-23.002-177.904-147.32-177.904-59.746 0-99.848 22.176-116.252 53.302h-1.696v-53.302h-110.192v394.928h115.168v-195.734c0-51.642 9.768-101.616 73.682-101.616 62.948 0 68.042 59.036 68.042 104.934v192.416h118.568V592.152z" fill="#FFFFFF" /><path d="M353.38 414.248v394.928h-138.328V414.248h138.328m0-19.754h-138.328c-10.91 0-19.754 8.844-19.754 19.754v394.928c0 10.91 8.844 19.754 19.754 19.754h138.328c10.91 0 19.754-8.844 19.754-19.754V414.248c0-10.91-8.842-19.754-19.754-19.754zM284.216 216.778c38.172 0 69.164 30.97 69.164 69.114s-30.992 69.116-69.164 69.116c-38.228 0-69.164-30.97-69.164-69.116s30.938-69.114 69.164-69.114m0-19.754c-49.03 0-88.918 39.866-88.918 88.868 0 49.002 39.888 88.87 88.918 88.87s88.918-39.866 88.918-88.87c0-49.002-39.888-88.868-88.918-88.868zM660.574 414.248c124.318 0 147.32 71.352 147.32 177.904v217.024h-118.568V616.76c0-45.898-5.094-104.934-68.042-104.934-63.914 0-73.682 49.972-73.682 101.616v195.734h-115.168V414.248h110.192v53.302h1.696c16.404-31.126 56.506-53.302 116.252-53.302m0-19.754c-31.764 0-59.678 5.7-82.966 16.944a131.132 131.132 0 0 0-15.226 8.626v-5.816c0-10.91-8.844-19.754-19.754-19.754h-110.192c-10.91 0-19.754 8.844-19.754 19.754v394.928c0 10.91 8.844 19.754 19.754 19.754h115.168c10.91 0 19.754-8.844 19.754-19.754v-195.734c0-17.906 1.08-43.674 10.424-60.646 5.438-9.876 15.296-21.214 43.504-21.214 35.2 0 48.288 23.086 48.288 85.18v192.416c0 10.91 8.844 19.754 19.754 19.754h118.568c10.91 0 19.754-8.844 19.754-19.754V592.152c0-44.436-3.464-100.512-30.484-140.054-26.488-38.762-71.168-57.604-136.592-57.604z" fill="#005788" /><path d="M728.078 956.122H294.83c-124.896 0-226.506-101.636-226.506-226.566V296.358c0-124.908 101.61-226.526 226.506-226.526h433.248c124.918 0 226.544 101.62 226.544 226.526v433.198c0.002 124.928-101.626 226.566-226.544 226.566zM294.83 89.636c-113.976 0-206.702 92.734-206.702 206.72v433.198c0 114.008 92.726 206.762 206.702 206.762h433.248c113.996 0 206.74-92.754 206.74-206.762V296.358c0-113.986-92.744-206.72-206.74-206.72H294.83z" fill="#005788" /></svg>